# xmcd
#
# Track frame offsets: 
#        150
#        16220
#        32586
#        51830
#        62445
#        74186
#        91092
#        110357
#        128676
#        145878
#        165440
#
# Disc length: 2390 seconds
#
# Revision: 3
# Processed by: cddbd v1.5.2PL0 Copyright (c) Steve Scherf et al.
# Submitted via: ExactAudioCopy v1.0b3
#
DISCID=8c09540b
DTITLE=Foley, Sue - Big City Blues
DYEAR=1995
DGENRE=Electric Blues
TTITLE0=Big City Blues
TTITLE1=Howlin' For My Darling
TTITLE2=To Be Alone With You
TTITLE3=One Hundred Dollar Bill
TTITLE4=Ain't Gonna Worry No More
TTITLE5=This Time
TTITLE6=As Long As I Have You
TTITLE7=Highway Bound
TTITLE8=If You Gotta Go
TTITLE9=My Baby's Sweeter
TTITLE10=Girl's Night Out
EXTD=
EXTT0=
EXTT1=
EXTT2=
EXTT3=
EXTT4=
EXTT5=
EXTT6=
EXTT7=
EXTT8=
EXTT9=
EXTT10=
PLAYORDER=
